REM DIRINDEX 1\2,1\3
REM DIRNAME cjc039,folder01,folder02
TITLE ""
FILE "3241-3260.mp3" MP3
  TRACK 01 AUDIO
    TITLE "0:"
    INDEX 01 00:00:00
  TRACK 02 AUDIO
    TITLE "2:cjc039_5481"
    INDEX 01 00:00:27
  TRACK 03 AUDIO
    TITLE "0:"
    INDEX 01 00:01:38
  TRACK 04 AUDIO
    TITLE "3:cjc039_5482"
    INDEX 01 00:02:16
  TRACK 05 AUDIO
    TITLE "0:"
    INDEX 01 00:05:36
  TRACK 06 AUDIO
    TITLE "2:cjc039_5483"
    INDEX 01 00:07:05
  TRACK 07 AUDIO
    TITLE "0:"
    INDEX 01 00:08:11
  TRACK 08 AUDIO
    TITLE "3:cjc039_5484"
    INDEX 01 00:08:64
  TRACK 09 AUDIO
    TITLE "0:"
    INDEX 01 00:12:30
  TRACK 10 AUDIO
    TITLE "2:cjc039_5485"
    INDEX 01 00:14:09
  TRACK 11 AUDIO
    TITLE "0:"
    INDEX 01 00:15:03
  TRACK 12 AUDIO
    TITLE "3:cjc039_5486"
    INDEX 01 00:15:54
  TRACK 13 AUDIO
    TITLE "0:"
    INDEX 01 00:18:56
  TRACK 14 AUDIO
    TITLE "2:cjc039_5487"
    INDEX 01 00:20:30
  TRACK 15 AUDIO
    TITLE "0:"
    INDEX 01 00:21:74
  TRACK 16 AUDIO
    TITLE "3:cjc039_5488"
    INDEX 01 00:22:48
  TRACK 17 AUDIO
    TITLE "0:"
    INDEX 01 00:27:43
  TRACK 18 AUDIO
    TITLE "2:cjc039_5489"
    INDEX 01 00:29:19
  TRACK 19 AUDIO
    TITLE "0:"
    INDEX 01 00:30:24
  TRACK 20 AUDIO
    TITLE "3:cjc039_5490"
    INDEX 01 00:30:73
  TRACK 21 AUDIO
    TITLE "0:"
    INDEX 01 00:34:26
  TRACK 22 AUDIO
    TITLE "2:cjc039_5491"
    INDEX 01 00:35:70
  TRACK 23 AUDIO
    TITLE "0:"
    INDEX 01 00:37:24
  TRACK 24 AUDIO
    TITLE "3:cjc039_5492"
    INDEX 01 00:38:00
  TRACK 25 AUDIO
    TITLE "0:"
    INDEX 01 00:43:05
  TRACK 26 AUDIO
    TITLE "2:cjc039_5493"
    INDEX 01 00:44:58
  TRACK 27 AUDIO
    TITLE "0:"
    INDEX 01 00:46:00
  TRACK 28 AUDIO
    TITLE "3:cjc039_5494"
    INDEX 01 00:46:51
  TRACK 29 AUDIO
    TITLE "0:"
    INDEX 01 00:50:11
  TRACK 30 AUDIO
    TITLE "2:cjc039_5495"
    INDEX 01 00:51:63
  TRACK 31 AUDIO
    TITLE "0:"
    INDEX 01 00:53:21
  TRACK 32 AUDIO
    TITLE "3:cjc039_5496"
    INDEX 01 00:53:72
  TRACK 33 AUDIO
    TITLE "0:"
    INDEX 01 00:58:22
  TRACK 34 AUDIO
    TITLE "2:cjc039_5497"
    INDEX 01 01:00:00
  TRACK 35 AUDIO
    TITLE "0:"
    INDEX 01 01:01:09
  TRACK 36 AUDIO
    TITLE "3:cjc039_5498"
    INDEX 01 01:01:62
  TRACK 37 AUDIO
    TITLE "0:"
    INDEX 01 01:05:50
  TRACK 38 AUDIO
    TITLE "2:cjc039_5499"
    INDEX 01 01:07:25
  TRACK 39 AUDIO
    TITLE "0:"
    INDEX 01 01:08:48
  TRACK 40 AUDIO
    TITLE "3:cjc039_5500"
    INDEX 01 01:09:28
  TRACK 41 AUDIO
    TITLE "0:"
    INDEX 01 01:13:36
  TRACK 42 AUDIO
    TITLE "2:cjc039_5501"
    INDEX 01 01:15:15
  TRACK 43 AUDIO
    TITLE "0:"
    INDEX 01 01:16:36
  TRACK 44 AUDIO
    TITLE "3:cjc039_5502"
    INDEX 01 01:17:10
  TRACK 45 AUDIO
    TITLE "0:"
    INDEX 01 01:20:63
  TRACK 46 AUDIO
    TITLE "2:cjc039_5503"
    INDEX 01 01:22:37
  TRACK 47 AUDIO
    TITLE "0:"
    INDEX 01 01:24:00
  TRACK 48 AUDIO
    TITLE "3:cjc039_5504"
    INDEX 01 01:24:47
  TRACK 49 AUDIO
    TITLE "0:"
    INDEX 01 01:28:02
  TRACK 50 AUDIO
    TITLE "2:cjc039_5505"
    INDEX 01 01:29:48
  TRACK 51 AUDIO
    TITLE "0:"
    INDEX 01 01:30:71
  TRACK 52 AUDIO
    TITLE "3:cjc039_5506"
    INDEX 01 01:31:47
  TRACK 53 AUDIO
    TITLE "0:"
    INDEX 01 01:35:02
  TRACK 54 AUDIO
    TITLE "2:cjc039_5507"
    INDEX 01 01:36:56
  TRACK 55 AUDIO
    TITLE "0:"
    INDEX 01 01:37:68
  TRACK 56 AUDIO
    TITLE "3:cjc039_5508"
    INDEX 01 01:38:42
  TRACK 57 AUDIO
    TITLE "0:"
    INDEX 01 01:42:47
  TRACK 58 AUDIO
    TITLE "2:cjc039_5509"
    INDEX 01 01:44:24
  TRACK 59 AUDIO
    TITLE "0:"
    INDEX 01 01:45:38
  TRACK 60 AUDIO
    TITLE "3:cjc039_5510"
    INDEX 01 01:46:16
  TRACK 61 AUDIO
    TITLE "0:"
    INDEX 01 01:49:53
  TRACK 62 AUDIO
    TITLE "2:cjc039_5511"
    INDEX 01 01:51:27
  TRACK 63 AUDIO
    TITLE "0:"
    INDEX 01 01:52:65
  TRACK 64 AUDIO
    TITLE "3:cjc039_5512"
    INDEX 01 01:53:43
  TRACK 65 AUDIO
    TITLE "0:"
    INDEX 01 01:56:53
  TRACK 66 AUDIO
    TITLE "2:cjc039_5513"
    INDEX 01 01:58:32
  TRACK 67 AUDIO
    TITLE "0:"
    INDEX 01 01:59:48
  TRACK 68 AUDIO
    TITLE "3:cjc039_5514"
    INDEX 01 02:00:25
  TRACK 69 AUDIO
    TITLE "0:"
    INDEX 01 02:03:06
  TRACK 70 AUDIO
    TITLE "2:cjc039_5515"
    INDEX 01 02:04:59
  TRACK 71 AUDIO
    TITLE "0:"
    INDEX 01 02:06:24
  TRACK 72 AUDIO
    TITLE "3:cjc039_5516"
    INDEX 01 02:07:00
  TRACK 73 AUDIO
    TITLE "0:"
    INDEX 01 02:11:27
  TRACK 74 AUDIO
    TITLE "2:cjc039_5517"
    INDEX 01 02:13:05
  TRACK 75 AUDIO
    TITLE "0:"
    INDEX 01 02:14:24
  TRACK 76 AUDIO
    TITLE "3:cjc039_5518"
    INDEX 01 02:15:03
  TRACK 77 AUDIO
    TITLE "0:"
    INDEX 01 02:18:65
  TRACK 78 AUDIO
    TITLE "2:cjc039_5519"
    INDEX 01 02:20:42
  TRACK 79 AUDIO
    TITLE "0:"
    INDEX 01 02:22:06
  TRACK 80 AUDIO
    TITLE "3:cjc039_5520"
    INDEX 01 02:22:56
  TRACK 81 AUDIO
    TITLE "0:"
    INDEX 01 02:26:46
